<svg xmlns="http://www.w3.org/2000/svg" xmlns:xlink="http://www.w3.org/1999/xlink" width="1584" zoomAndPan="magnify" viewBox="0 0 1188 1187.999943" height="1584" preserveAspectRatio="xMidYMid meet" version="1.0"><defs><clipPath id="17ae95ac13"><path d="M 193.300781 325 L 989.050781 325 L 989.050781 863 L 193.300781 863 Z M 193.300781 325 " clip-rule="nonzero"/></clipPath></defs><path fill="#000000" d="M 286.761719 485.1875 C 297.292969 472.285156 293.550781 456.664062 298.988281 438.675781 C 304.425781 420.683594 302.730469 383.332031 303.058594 376.542969 C 303.386719 369.753906 309.171875 355.15625 317.65625 343.605469 C 326.140625 332.054688 349.917969 328.679688 379.113281 328.679688 C 408.308594 328.679688 424.949219 362.292969 427.996094 370.777344 C 431.042969 379.261719 432.066406 388.421875 429.347656 388.421875 C 426.628906 388.421875 413.398438 386.722656 407.285156 385.375 C 401.171875 384.023438 403.546875 376.890625 402.195312 368.058594 C 400.84375 359.226562 393.710938 358.898438 393.710938 358.898438 C 394.386719 365.011719 387.597656 379.609375 387.597656 379.609375 C 387.597656 379.609375 358.054688 383.347656 349.242188 385.71875 C 340.410156 388.09375 338.382812 392.160156 338.382812 396.25 C 338.382812 400.316406 338.382812 400.992188 330.921875 398.292969 C 323.457031 395.574219 317.34375 394.222656 314.625 403.039062 C 311.90625 411.867188 324.808594 417.289062 338.382812 428.164062 C 351.960938 439.019531 343.820312 446.503906 339.734375 470.933594 C 335.648438 495.367188 313.257812 501.480469 301.03125 504.199219 C 288.808594 506.917969 265.722656 515.058594 265.722656 515.058594 C 265.722656 515.058594 276.253906 498.085938 286.761719 485.1875 Z M 692.453125 650.175781 C 691.941406 644.066406 693.988281 640.507812 693.988281 640.507812 C 727.597656 661.890625 765.789062 657.824219 765.789062 657.824219 C 765.789062 657.824219 779.53125 652.730469 786.664062 654.777344 C 793.796875 656.820312 794.308594 661.398438 793.796875 669.027344 C 793.289062 676.671875 795.84375 676.160156 795.84375 676.160156 C 814.691406 669.027344 813.671875 634.921875 805.511719 614.539062 C 797.355469 594.160156 778.527344 586.53125 760.699219 583.996094 C 742.871094 581.441406 719.460938 596.730469 704.679688 601.3125 C 689.898438 605.890625 680.738281 600.800781 667.507812 602.84375 C 654.261719 604.886719 655.285156 612.515625 651.726562 626.785156 C 648.167969 641.035156 653.769531 648.679688 662.929688 660.90625 C 672.089844 673.132812 695.007812 678.734375 695.007812 678.734375 C 695.007812 678.734375 692.964844 656.273438 692.453125 650.175781 Z M 692.453125 650.175781 " fill-opacity="1" fill-rule="evenodd"/><path fill="#d9d9d9" d="M 429.695312 671.5625 C 428.671875 661.382812 432.25 647.113281 432.25 647.113281 C 435.804688 658.828125 459.746094 686.835938 471.460938 695.484375 C 483.175781 704.132812 490.3125 715.339844 514.742188 704.644531 C 539.195312 693.953125 528.996094 661.875 527.992188 642.515625 C 526.96875 623.171875 505.074219 560.019531 505.074219 560.019531 C 498.011719 561.695312 492.246094 561.515625 487.757812 560.636719 C 497.300781 561.296875 508.121094 557.972656 508.121094 557.972656 C 508.121094 557.972656 506.585938 542.191406 508.121094 534.542969 C 509.652344 526.898438 525.4375 518.25 534.085938 512.648438 C 542.734375 507.046875 542.242188 496.351562 542.242188 496.351562 C 550.398438 490.75 564.140625 476.5 563.628906 472.925781 C 563.117188 469.367188 557.003906 466.300781 550.890625 465.789062 C 544.777344 465.277344 542.242188 470.371094 535.617188 471.902344 C 528.996094 473.433594 528.484375 479.546875 528.484375 479.546875 C 528.484375 479.546875 519.835938 483.617188 509.140625 490.242188 C 498.449219 496.863281 491.824219 494.820312 491.824219 494.820312 C 491.824219 494.820312 483.175781 469.367188 477.574219 469.875 C 471.972656 470.386719 477.574219 484.640625 477.0625 494.820312 C 476.550781 505.003906 470.949219 514.164062 471.460938 523.851562 C 471.972656 533.523438 475.019531 554.398438 475.019531 554.398438 C 475.292969 554.871094 475.605469 555.308594 475.933594 555.710938 L 472.484375 565.089844 C 472.484375 565.089844 461.28125 536.570312 450.585938 513.652344 C 439.894531 490.734375 413.746094 492.265625 413.746094 492.265625 C 413.746094 492.265625 414.695312 495.460938 413.144531 500.167969 C 413.820312 495.953125 413.746094 492.265625 413.746094 492.265625 C 413.746094 492.265625 393.035156 489.546875 379.457031 485.824219 C 365.882812 482.101562 378.4375 452.886719 378.4375 452.886719 C 386.246094 453.910156 395.753906 453.5625 405.261719 444.058594 C 414.765625 434.550781 419.511719 408.074219 420.878906 400.261719 C 422.230469 392.453125 424.949219 388.382812 417.484375 388.039062 C 410.023438 387.691406 405.9375 386.6875 405.9375 378.878906 C 405.9375 371.066406 393.710938 354.097656 393.710938 358.84375 C 393.710938 363.585938 387.597656 379.554688 387.597656 379.554688 L 341.761719 388.714844 L 338.019531 401.613281 C 338.019531 401.613281 329.1875 396.523438 320.703125 395.5 C 312.21875 394.480469 316.285156 408.75 316.285156 408.75 C 316.285156 408.75 318.660156 414.515625 324.773438 418.929688 C 330.886719 423.347656 336.652344 425.371094 341.414062 432.179688 C 346.15625 438.964844 344.132812 447.121094 343.457031 461.375 C 342.78125 475.625 335.300781 486.5 324.113281 495.660156 C 312.910156 504.820312 288.808594 508.90625 288.808594 508.90625 C 288.808594 508.90625 283.039062 510.605469 265.722656 515.019531 C 248.40625 519.4375 243.828125 537.59375 243.828125 537.59375 C 243.828125 537.59375 212.769531 688.496094 211.402344 724.480469 C 210.035156 760.464844 235.851562 756.046875 250.105469 751.980469 C 264.355469 747.910156 276.253906 737.035156 285.742188 731.269531 C 294.847656 725.738281 325.0625 698.148438 327.636719 695.796875 C 328.039062 695.851562 328.441406 695.921875 328.859375 695.960938 L 344.480469 685.777344 C 344.480469 685.777344 391.667969 665.742188 395.058594 655.90625 C 398.453125 646.054688 389.292969 631.457031 389.292969 631.457031 C 389.292969 631.457031 388.636719 630.542969 388.417969 629.136719 C 389.859375 631.054688 392.796875 635.140625 394.058594 637.898438 C 395.753906 641.636719 396.429688 651.820312 395.40625 656.234375 C 394.386719 660.652344 389.96875 666.417969 389.96875 666.417969 C 389.96875 666.417969 400.664062 715.8125 402.195312 731.085938 C 403.726562 746.359375 391.503906 747.378906 391.503906 747.378906 C 391.503906 747.378906 301.871094 764.699219 285.066406 767.234375 C 268.261719 769.789062 267.75 758.074219 267.75 758.074219 C 267.75 758.074219 256.035156 788.125 247.894531 806.445312 C 239.738281 824.785156 238.226562 858.890625 238.226562 858.890625 L 489.269531 857.355469 C 486.714844 824.765625 455.660156 734.625 454.636719 733.109375 C 453.632812 731.652344 430.714844 681.746094 429.695312 671.5625 Z M 354.734375 531.550781 C 327.054688 535 307.984375 524.984375 297.730469 517.191406 C 311.398438 525.511719 335.882812 530.585938 354.734375 531.550781 Z M 319.917969 692.621094 C 321.542969 693.863281 323.402344 694.828125 325.574219 695.414062 C 323.457031 694.992188 321.578125 694.027344 319.917969 692.621094 Z M 355.007812 611.804688 C 353.65625 607.734375 348.21875 602.972656 346.851562 605.015625 C 345.484375 607.058594 343.109375 619.960938 339.386719 626.402344 C 335.648438 632.84375 330.554688 636.582031 329.207031 642.347656 C 327.855469 648.117188 325.464844 656.949219 325.464844 656.949219 L 309.515625 663.058594 C 309.515625 663.058594 309.261719 670.816406 311.523438 678.808594 C 308.714844 670.851562 307.820312 663.058594 307.820312 663.058594 L 257.238281 683.769531 C 257.238281 683.769531 245.011719 610.105469 243.664062 602.972656 C 242.3125 595.835938 249.101562 591.421875 249.101562 591.421875 C 249.101562 591.421875 354.003906 570.710938 361.46875 570.382812 C 368.929688 570.054688 370.296875 576.496094 370.296875 576.496094 L 380.152344 616.546875 C 380.152344 616.546875 381.59375 616.382812 383.566406 616.367188 C 375.554688 617.367188 364.242188 619.976562 357.417969 625.03125 C 357.378906 625.050781 356.359375 615.871094 355.007812 611.804688 Z M 388.363281 627.769531 C 388.472656 626.546875 388.964844 625.140625 390.296875 623.683594 C 391.832031 622.003906 393.179688 620.398438 393.820312 619.066406 C 394.039062 619.339844 394.238281 619.632812 394.386719 619.941406 C 396.046875 623.828125 390.480469 626.804688 388.363281 627.769531 Z M 683.292969 551.878906 C 680.738281 548.320312 684.316406 542.207031 684.316406 542.207031 L 718.949219 543.742188 C 718.949219 543.742188 720.480469 549.34375 720.992188 555.457031 C 721.503906 561.570312 712.34375 558.011719 709.789062 563.101562 C 707.234375 568.191406 703.675781 571.257812 696.046875 569.214844 C 688.421875 567.171875 695.027344 563.613281 687.890625 560.566406 C 680.738281 557.480469 683.292969 551.878906 683.292969 551.878906 Z M 691.433594 642.53125 C 736.246094 664.429688 765.261719 658.316406 765.261719 658.316406 C 765.261719 658.316406 781.554688 650.160156 790.203125 657.292969 C 798.851562 664.429688 792.082031 670.488281 789.691406 677.65625 C 789.183594 679.191406 807.519531 680.210938 807.519531 680.210938 C 807.519531 680.210938 800.898438 705.667969 790.203125 717.382812 C 779.511719 729.097656 769.328125 734.699219 756.082031 734.1875 C 742.835938 733.675781 745.390625 715.847656 745.390625 715.847656 C 686.339844 719.425781 691.433594 642.53125 691.433594 642.53125 Z M 777.996094 807.011719 C 767.304688 795.808594 762.210938 784.09375 750.5 774.933594 C 738.785156 765.773438 718.929688 749.480469 698.054688 764.75 C 698.054688 764.75 689.40625 774.933594 696.523438 776.464844 C 703.65625 778 708.238281 776.976562 703.148438 783.601562 C 698.054688 790.226562 696.011719 799.386719 707.726562 799.386719 C 711.285156 799.894531 707.214844 806.007812 712.816406 809.566406 C 718.417969 813.125 716.375 814.65625 721.976562 811.101562 C 727.578125 807.542969 731.136719 807.542969 731.136719 807.542969 C 731.136719 807.542969 723.492188 818.746094 729.605469 821.792969 C 735.71875 824.839844 742.851562 818.234375 742.851562 818.234375 C 742.851562 818.234375 743.363281 832.484375 750.5 834.019531 C 751.539062 834.238281 752.722656 834.402344 754.019531 834.527344 L 707.726562 834.527344 L 706.195312 821.792969 L 669.535156 732.671875 C 669.535156 732.671875 657.308594 728.605469 647.636719 729.625 C 637.96875 730.648438 498.429688 731.160156 498.429688 731.160156 C 498.429688 731.160156 484.179688 737.273438 489.78125 746.429688 L 526.441406 838.085938 L 535.089844 841.644531 C 535.089844 841.644531 534.066406 856.40625 540.179688 858.453125 C 546.292969 860.496094 770.351562 859.472656 770.351562 859.472656 C 770.351562 859.472656 775.660156 856.425781 778.253906 851.226562 C 778.070312 852.539062 777.976562 853.359375 777.976562 853.359375 L 794.785156 855.402344 C 794.785156 855.402344 804.457031 849.800781 804.457031 836.0625 C 804.457031 822.320312 803.433594 817.722656 803.433594 817.722656 C 803.433594 817.722656 788.691406 818.214844 777.996094 807.011719 Z M 778.324219 839.292969 C 779.273438 840.585938 779.859375 842.082031 779.53125 843.671875 C 779.253906 841.882812 778.816406 840.441406 778.324219 839.292969 Z M 778.324219 839.292969 " fill-opacity="1" fill-rule="evenodd"/><path fill="#f7ce4d" d="M 325.464844 656.964844 C 325.464844 656.964844 268.425781 673.605469 256.546875 686.160156 L 243.296875 600.945312 C 243.296875 600.945312 247.367188 589.742188 258.570312 588.046875 C 269.773438 586.347656 362.800781 570.730469 362.800781 570.730469 C 362.800781 570.730469 371.960938 573.101562 373.65625 582.609375 C 375.351562 592.113281 380.445312 614.523438 380.445312 614.523438 L 354.296875 626.75 C 354.296875 626.75 358.710938 617.589844 354.972656 611.804688 C 351.230469 606.019531 346.816406 605.015625 346.816406 605.015625 C 346.816406 605.015625 342.398438 623.355469 339.351562 626.402344 C 336.304688 629.449219 328.496094 639.648438 327.800781 645.066406 C 327.164062 650.507812 325.464844 656.964844 325.464844 656.964844 Z M 388.949219 664.082031 C 379.441406 675.285156 336.996094 688.863281 336.996094 688.863281 C 328.511719 701.085938 265.359375 746.230469 265.359375 746.230469 C 271.472656 771.011719 282 769.988281 282 769.988281 C 282 769.988281 376.722656 753.347656 391.648438 749.277344 C 406.574219 745.210938 401.828125 732.308594 401.828125 732.308594 Z M 684.296875 542.207031 L 718.929688 543.742188 C 718.929688 543.742188 732.671875 514.199219 733.691406 502.996094 C 734.714844 491.792969 727.070312 478.542969 711.796875 472.449219 C 696.523438 466.335938 687.855469 472.960938 675.648438 481.609375 C 663.421875 490.257812 666.488281 507.066406 669.535156 517.757812 C 672.601562 528.46875 684.296875 542.207031 684.296875 542.207031 Z M 952.148438 820.242188 C 951.125 799.878906 920.582031 752.507812 886.96875 715.339844 C 853.359375 678.167969 807.539062 680.195312 807.539062 680.195312 C 807.539062 680.195312 803.980469 689.355469 797.867188 704.644531 C 791.753906 719.917969 773.925781 733.164062 760.1875 735.191406 C 746.445312 737.234375 745.425781 715.847656 745.425781 715.847656 C 720.972656 719.40625 705.191406 701.597656 705.191406 701.597656 C 705.191406 701.597656 700.097656 704.644531 687.875 712.800781 C 675.648438 720.957031 669.535156 736.230469 669.535156 736.230469 L 695.5 794.277344 L 703.148438 783.582031 C 703.148438 783.582031 703.148438 779.515625 696.523438 776.449219 C 689.898438 773.402344 698.054688 764.734375 698.054688 764.734375 C 719.441406 745.882812 761.191406 778.984375 772.394531 798.855469 C 783.597656 818.710938 803.453125 817.707031 803.453125 817.707031 C 803.453125 817.707031 803.453125 822.796875 804.472656 836.042969 C 805.496094 849.292969 794.800781 855.386719 794.800781 855.386719 L 812.628906 859.964844 C 812.628906 859.964844 926.695312 859.453125 935.851562 855.898438 C 945.03125 852.339844 953.171875 840.625 952.148438 820.242188 Z M 734.714844 824.328125 C 729.625 822.285156 725.042969 818.214844 727.070312 813.636719 C 729.113281 809.054688 729.113281 809.054688 729.113281 809.054688 C 729.113281 809.054688 728.089844 804.988281 724.019531 807.523438 C 719.953125 810.078125 717.910156 813.636719 712.816406 809.566406 C 707.726562 805.496094 713.839844 799.386719 713.839844 799.386719 L 696.523438 800.917969 L 707.214844 827.90625 L 707.726562 834.53125 L 750.496094 834.019531 L 742.851562 818.234375 C 742.871094 818.214844 739.804688 826.355469 734.714844 824.328125 Z M 734.714844 824.328125 " fill-opacity="1" fill-rule="evenodd"/><path fill="#000000" d="M 676.140625 532.8125 C 677.035156 534.160156 680.957031 541.058594 681.832031 543.558594 C 681.816406 543.613281 681.816406 543.667969 681.816406 543.722656 C 680.335938 545.476562 679.113281 547.882812 679.351562 550.457031 C 679.480469 551.824219 680.007812 553.066406 680.886719 554.105469 C 680.300781 555.875 680.136719 557.957031 680.976562 559.800781 C 681.796875 561.605469 683.4375 562.808594 685.59375 563.191406 C 687.398438 563.503906 689.316406 563.742188 691.265625 563.941406 C 691.359375 568.574219 695.152344 572.335938 699.808594 572.335938 L 703.3125 572.335938 C 708.035156 572.335938 711.886719 568.484375 711.886719 563.777344 L 711.886719 563.394531 C 711.886719 563.394531 711.886719 563.375 711.886719 563.375 C 712.324219 563.300781 712.78125 563.246094 713.199219 563.175781 C 714.113281 563.011719 722.085938 561.40625 723.511719 556.53125 C 723.800781 555.546875 723.984375 553.777344 722.617188 551.824219 C 723.089844 550.199219 723.492188 547.683594 722.617188 545.4375 C 722.269531 544.5625 721.757812 543.796875 721.101562 543.15625 C 721.429688 537.703125 724.515625 533.03125 727.78125 528.105469 C 731.101562 523.121094 734.550781 517.976562 735.371094 511.570312 C 736.121094 505.769531 735.609375 499.511719 733.929688 493.488281 C 729.96875 479.421875 719.714844 469.640625 707.179688 467.960938 C 695.882812 466.464844 684.1875 469.949219 675.847656 477.304688 C 668.09375 484.109375 663.84375 493.542969 663.859375 503.851562 C 663.84375 514.179688 669.917969 523.832031 676.140625 532.8125 Z M 696.429688 513.761719 C 697.945312 513.230469 699.480469 512.519531 701.011719 511.589844 C 702.542969 512.519531 704.09375 513.230469 705.589844 513.761719 C 703.640625 522.554688 704.808594 537.210938 705.207031 541.460938 C 701.925781 541.496094 699.152344 541.515625 696.816406 541.535156 C 697.199219 537.390625 698.382812 522.59375 696.429688 513.761719 Z M 716.921875 546.824219 C 717.25 546.988281 717.398438 547.171875 717.488281 547.371094 C 717.800781 548.15625 717.5625 549.542969 717.234375 550.566406 L 685.0625 550.566406 C 684.84375 550.308594 684.808594 550.089844 684.808594 549.964844 C 684.734375 549.179688 685.300781 548.03125 686.140625 547.097656 C 691.980469 547.0625 711.558594 546.878906 716.921875 546.824219 Z M 703.273438 566.84375 L 699.769531 566.84375 C 698.238281 566.84375 696.980469 565.730469 696.722656 564.269531 C 697.5625 564.289062 698.421875 564.324219 699.261719 564.324219 C 701.648438 564.324219 704.023438 564.234375 706.320312 564.03125 C 706.195312 565.601562 704.878906 566.84375 703.273438 566.84375 Z M 712.160156 557.753906 C 704.480469 559.179688 694.40625 559.195312 686.503906 557.792969 C 686.175781 557.738281 685.976562 557.644531 685.921875 557.519531 C 685.792969 557.226562 685.828125 556.679688 685.996094 556.039062 L 716.90625 556.039062 C 715.773438 556.714844 714.023438 557.425781 712.160156 557.753906 Z M 679.40625 481.371094 C 685.484375 476.027344 693.65625 473.050781 701.925781 473.050781 C 703.421875 473.050781 704.917969 473.144531 706.414062 473.34375 C 716.90625 474.730469 725.207031 482.796875 728.621094 494.910156 C 730.117188 500.238281 730.554688 505.734375 729.914062 510.824219 C 729.257812 515.949219 726.320312 520.347656 723.199219 525.019531 C 719.898438 529.984375 716.484375 535.074219 715.699219 541.351562 C 713.929688 541.371094 712.269531 541.386719 710.699219 541.40625 C 709.933594 533.558594 709.476562 521.132812 710.917969 514.839844 C 715.664062 515.128906 719.75 513.523438 722.289062 510.859375 C 724.84375 508.160156 725.242188 504.65625 723.273438 502.136719 C 721.320312 499.65625 719.222656 499.21875 717.78125 499.308594 C 714.078125 499.511719 711.011719 503.179688 707.582031 508.632812 C 706.03125 508.121094 704.386719 507.300781 702.671875 506.117188 C 702.34375 505.878906 701.980469 505.695312 701.59375 505.625 C 701.59375 505.625 701.578125 505.625 701.578125 505.625 C 701.46875 505.605469 701.339844 505.585938 701.230469 505.585938 C 701.15625 505.585938 701.085938 505.566406 701.011719 505.566406 C 700.976562 505.566406 700.921875 505.566406 700.882812 505.585938 C 700.335938 505.605469 699.808594 505.804688 699.371094 506.132812 C 697.652344 507.320312 696.011719 508.121094 694.460938 508.632812 C 691.03125 503.160156 687.964844 499.511719 684.261719 499.308594 C 682.835938 499.238281 680.738281 499.65625 678.769531 502.136719 C 676.796875 504.636719 677.199219 508.140625 679.753906 510.859375 C 682.289062 513.523438 686.359375 515.128906 691.121094 514.839844 C 692.5625 521.167969 692.105469 533.742188 691.324219 541.589844 C 689.316406 541.605469 687.890625 541.625 686.871094 541.625 C 685.335938 536.714844 680.722656 529.800781 680.664062 529.710938 C 674.9375 521.425781 669.316406 512.59375 669.296875 503.796875 C 669.261719 495.09375 672.855469 487.136719 679.40625 481.371094 Z M 713.730469 509.253906 C 716.429688 505.347656 717.652344 504.800781 718.089844 504.785156 C 718.199219 504.785156 718.527344 504.984375 718.96875 505.53125 C 719.242188 505.878906 718.730469 506.664062 718.308594 507.101562 C 717.398438 508.066406 715.792969 508.925781 713.730469 509.253906 Z M 688.292969 509.253906 C 686.214844 508.925781 684.625 508.066406 683.730469 507.101562 C 683.3125 506.664062 682.800781 505.878906 683.074219 505.53125 C 683.511719 504.984375 683.839844 504.785156 683.949219 504.785156 C 684.371094 504.800781 685.59375 505.347656 688.292969 509.253906 Z M 688.292969 509.253906 " fill-opacity="1" fill-rule="nonzero"/><path fill="#000000" d="M 645.285156 514.546875 C 643.769531 514.308594 642.382812 515.3125 642.128906 516.789062 C 641.871094 518.285156 642.894531 519.691406 644.371094 519.945312 L 655.867188 521.863281 C 656.015625 521.882812 656.179688 521.898438 656.324219 521.898438 C 657.636719 521.898438 658.804688 520.949219 659.023438 519.617188 C 659.28125 518.121094 658.257812 516.71875 656.78125 516.460938 Z M 645.285156 514.546875 " fill-opacity="1" fill-rule="nonzero"/><path fill="#000000" d="M 655.777344 459.402344 L 665.066406 466.445312 C 665.558594 466.828125 666.140625 466.992188 666.726562 466.992188 C 667.546875 466.992188 668.367188 466.609375 668.914062 465.917969 C 669.828125 464.710938 669.589844 462.996094 668.386719 462.085938 L 659.097656 455.042969 C 657.894531 454.128906 656.179688 454.367188 655.265625 455.570312 C 654.335938 456.773438 654.574219 458.492188 655.777344 459.402344 Z M 655.777344 459.402344 " fill-opacity="1" fill-rule="nonzero"/><path fill="#000000" d="M 756.136719 513.269531 L 744.640625 515.183594 C 743.144531 515.441406 742.140625 516.84375 742.394531 518.339844 C 742.617188 519.671875 743.78125 520.621094 745.097656 520.621094 C 745.242188 520.621094 745.40625 520.605469 745.554688 520.585938 L 757.050781 518.667969 C 758.546875 518.414062 759.546875 517.007812 759.292969 515.511719 C 759.039062 514.035156 757.613281 513.03125 756.136719 513.269531 Z M 756.136719 513.269531 " fill-opacity="1" fill-rule="nonzero"/><path fill="#000000" d="M 637.238281 484.785156 L 652.566406 490.53125 C 652.875 490.660156 653.203125 490.714844 653.53125 490.714844 C 654.644531 490.714844 655.683594 490.039062 656.085938 488.945312 C 656.617188 487.523438 655.90625 485.953125 654.480469 485.421875 L 639.152344 479.675781 C 637.75 479.144531 636.160156 479.859375 635.632812 481.28125 C 635.101562 482.6875 635.832031 484.253906 637.238281 484.785156 Z M 637.238281 484.785156 " fill-opacity="1" fill-rule="nonzero"/><path fill="#000000" d="M 732.652344 466.226562 C 733.234375 466.226562 733.800781 466.042969 734.3125 465.679688 L 743.601562 458.636719 C 744.804688 457.722656 745.042969 456.007812 744.128906 454.804688 C 743.21875 453.601562 741.503906 453.363281 740.296875 454.273438 L 731.011719 461.320312 C 729.804688 462.230469 729.570312 463.945312 730.480469 465.152344 C 730.992188 465.84375 731.8125 466.226562 732.652344 466.226562 Z M 732.652344 466.226562 " fill-opacity="1" fill-rule="nonzero"/><path fill="#000000" d="M 743.273438 488.160156 C 743.691406 489.253906 744.730469 489.929688 745.828125 489.929688 C 746.136719 489.929688 746.464844 489.875 746.792969 489.746094 L 762.121094 484 C 763.542969 483.472656 764.257812 481.882812 763.726562 480.476562 C 763.199219 479.074219 761.609375 478.34375 760.207031 478.871094 L 744.878906 484.621094 C 743.453125 485.167969 742.742188 486.738281 743.273438 488.160156 Z M 743.273438 488.160156 " fill-opacity="1" fill-rule="nonzero"/><path fill="#000000" d="M 702.199219 459.4375 C 703.710938 459.4375 704.933594 458.214844 704.933594 456.703125 L 704.933594 438.820312 C 704.933594 437.304688 703.710938 436.082031 702.199219 436.082031 C 700.683594 436.082031 699.460938 437.304688 699.460938 438.820312 L 699.460938 456.703125 C 699.460938 458.214844 700.683594 459.4375 702.199219 459.4375 Z M 702.199219 459.4375 " fill-opacity="1" fill-rule="nonzero"/><g clip-path="url(#17ae95ac13)"><path fill="#000000" d="M 986.363281 857.230469 L 939.011719 857.230469 C 942.257812 854.746094 945.234375 851.515625 947.675781 847.722656 C 954.15625 837.632812 955.980469 824.984375 952.804688 812.121094 C 946.144531 785.097656 900.179688 717.472656 869.269531 694.808594 C 848.085938 679.261719 819.164062 676.089844 802.320312 675.6875 C 807.648438 671.105469 811.425781 663.242188 812.996094 653.117188 C 816.058594 633.371094 810.167969 605.582031 793.234375 592.992188 C 765.898438 572.664062 737.761719 582.425781 723.4375 590.054688 C 721.558594 591.054688 719.84375 591.988281 718.21875 592.863281 C 706.394531 599.304688 700.992188 602.261719 685.683594 600.269531 C 675.902344 598.992188 664.917969 598.539062 657.382812 604.707031 C 652 609.101562 649.042969 616.257812 648.3125 626.636719 C 646.398438 668.296875 685.757812 678.953125 694.1875 680.761719 C 696.25 687.859375 699.09375 694.773438 703.019531 700.414062 C 681.175781 711.488281 673.039062 724.003906 670.0625 731.140625 C 667.621094 728.933594 664.390625 727.65625 660.941406 727.65625 C 660.921875 727.65625 660.886719 727.65625 660.867188 727.65625 L 500.914062 728.550781 C 496.40625 728.566406 492.191406 730.8125 489.652344 734.550781 C 487.117188 738.292969 486.589844 743.019531 488.230469 747.234375 L 522.480469 834.894531 C 524.214844 839.308594 527.992188 842.394531 532.5 843.304688 L 532.5 846.480469 C 532.5 850.679688 534.285156 854.472656 537.1875 857.246094 L 492.738281 857.246094 C 484.363281 798.582031 445.40625 706.269531 433.5625 679.136719 C 431.554688 674.554688 430.898438 669.519531 431.609375 664.59375 L 433.085938 654.539062 C 445.367188 678.660156 477.992188 713.183594 501.496094 713.183594 C 503.523438 713.183594 505.472656 712.929688 507.355469 712.382812 C 533.265625 704.902344 534.140625 682.949219 532.753906 659.171875 C 531.730469 641.800781 523.832031 607.570312 509.289062 557.425781 L 509.234375 557.246094 C 505.089844 542.957031 509.835938 531.316406 523.355469 522.628906 C 537.425781 513.578125 540.964844 510.332031 542.71875 499.511719 C 547.753906 496.042969 563.191406 484.929688 565.234375 477.796875 C 566.199219 474.382812 565.34375 471.9375 564.449219 470.480469 C 563.703125 469.257812 562.679688 468.34375 561.65625 467.652344 C 561.257812 467.15625 560.671875 466.8125 560.015625 466.703125 C 559.066406 466.261719 558.226562 465.988281 557.660156 465.84375 C 549.777344 460.480469 540.4375 466.738281 536.804688 469.65625 C 535.890625 469.292969 534.925781 469.128906 533.886719 469.21875 C 529.285156 469.566406 527.882812 473.105469 527.371094 477.210938 L 525.839844 478.289062 C 515.894531 485.203125 505.019531 490.625 493.539062 494.457031 C 493.230469 492.832031 492.882812 491.078125 492.464844 489.183594 C 491.148438 483.25 486.550781 470.222656 480.75 467.796875 C 479.160156 467.121094 477.519531 467.25 476.113281 468.105469 C 472.320312 470.480469 473.105469 475.023438 473.925781 479.820312 C 474.527344 483.324219 475.273438 487.667969 474.835938 492.59375 C 474.472656 496.738281 473.175781 501.207031 471.917969 505.550781 C 469.691406 513.230469 467.375 521.1875 469.890625 528.359375 C 472.265625 535.128906 472.996094 542.136719 472.136719 554.488281 C 464.765625 533.777344 449.363281 500.457031 433.890625 493.398438 C 424.875 489.273438 412.886719 488.507812 402.285156 487.832031 C 392.359375 487.191406 382.105469 486.535156 379.421875 483.03125 C 375.242188 477.558594 377.140625 463.179688 378.765625 455.515625 C 386.613281 457.378906 393.726562 456.171875 399.933594 451.921875 C 419.257812 438.636719 423.433594 399.425781 424.164062 390.0625 C 426.226562 390.28125 428.070312 390.683594 429.492188 391.394531 C 430.386719 391.851562 431.445312 391.777344 432.265625 391.230469 C 433.085938 390.683594 433.542969 389.714844 433.453125 388.730469 C 433.398438 388.09375 432.027344 373.09375 424.035156 357.746094 C 413.289062 337.128906 395.734375 326.035156 373.238281 325.632812 C 345.628906 325.140625 326.378906 331.160156 314.5 344.117188 C 304.628906 354.882812 299.738281 370.394531 299.132812 392.929688 C 298.222656 427.289062 296.835938 479.183594 264.246094 513.835938 C 263.84375 514.054688 263.441406 514.273438 263.058594 514.492188 C 250.160156 521.699219 242.058594 531.132812 238.972656 542.519531 C 232.496094 566.460938 223.152344 627.148438 216.96875 667.3125 C 214.667969 682.257812 212.84375 694.082031 211.75 700.285156 C 210.144531 709.335938 206 739.898438 219.703125 752.910156 C 223.792969 756.796875 229.011719 758.75 235.25 758.75 C 237.84375 758.75 240.632812 758.421875 243.570312 757.726562 C 249.703125 756.320312 256.765625 753.21875 264.226562 749.078125 L 265.359375 755.71875 C 261.5625 762.726562 237.421875 809.074219 237.019531 857.210938 L 196.039062 857.210938 C 194.523438 857.210938 193.300781 858.433594 193.300781 859.949219 C 193.300781 861.460938 194.523438 862.683594 196.039062 862.683594 L 986.363281 862.683594 C 987.875 862.683594 989.097656 861.460938 989.097656 859.949219 C 989.097656 858.433594 987.859375 857.230469 986.363281 857.230469 Z M 748.601562 717.511719 C 752.449219 716.160156 760.679688 713.113281 767.449219 705.851562 C 768.472656 704.738281 768.417969 703.003906 767.304688 701.980469 C 766.191406 700.960938 764.476562 701.015625 763.433594 702.128906 C 757.378906 708.660156 749.695312 711.34375 746.410156 712.492188 C 746.246094 712.546875 746.136719 712.582031 746.007812 712.636719 C 745.789062 712.636719 745.554688 712.675781 745.335938 712.730469 C 745.226562 712.765625 733.492188 715.886719 715.589844 705.191406 C 697.890625 694.628906 694.824219 657.113281 694.296875 645.289062 C 700.757812 649.191406 714.640625 656.125 735.664062 659.375 C 735.296875 659.777344 734.953125 660.214844 734.640625 660.707031 C 734.496094 660.960938 734.457031 661.289062 734.605469 661.582031 C 734.824219 662.039062 735.390625 662.238281 735.84375 662.019531 L 735.992188 661.945312 C 736.957031 661.492188 738 661.015625 738.964844 660.707031 C 739.914062 660.414062 740.84375 660.230469 741.777344 660.175781 C 742.90625 660.304688 744.039062 660.414062 745.207031 660.523438 C 746.027344 660.707031 746.847656 660.980469 747.796875 661.21875 L 747.960938 661.253906 C 748.34375 661.34375 748.78125 661.253906 749.113281 660.960938 C 749.148438 660.925781 749.167969 660.871094 749.203125 660.835938 C 754.273438 661.164062 759.675781 661.253906 765.40625 661.054688 C 765.953125 661.035156 766.5 660.835938 766.9375 660.503906 C 767.449219 660.121094 779.640625 651.21875 788.855469 658.734375 C 796.1875 664.71875 786.828125 676.875 786.738281 676.984375 C 786.0625 677.839844 785.972656 679.007812 786.480469 679.976562 C 786.992188 680.941406 788.03125 681.472656 789.128906 681.398438 C 789.292969 681.378906 794.765625 680.960938 803.070312 681.234375 C 796.847656 714.554688 772.871094 732.964844 758.34375 732.964844 C 755.277344 732.964844 753.015625 732.054688 751.410156 730.191406 C 748.546875 726.851562 748.34375 720.921875 748.601562 717.511719 Z M 674.167969 666.820312 C 659.847656 657.640625 652.984375 644.191406 653.769531 626.929688 C 654.390625 618.207031 656.707031 612.316406 660.847656 608.921875 C 665.558594 605.070312 672.765625 604.101562 684.972656 605.691406 C 702.035156 607.898438 708.710938 604.265625 720.828125 597.660156 C 722.433594 596.785156 724.128906 595.855469 725.992188 594.871094 C 742.105469 586.292969 766.28125 579.78125 789.949219 597.371094 C 805.167969 608.683594 810.402344 634.101562 807.574219 652.257812 C 805.824219 663.570312 801.226562 671.378906 794.910156 673.863281 C 797.683594 667.675781 798.78125 659.792969 792.285156 654.503906 C 781.117188 645.398438 767.667969 653.390625 764.367188 655.617188 C 718.402344 656.984375 693.695312 638.351562 693.457031 638.171875 C 692.269531 637.242188 690.539062 637.460938 689.625 638.644531 C 689.222656 639.15625 689.058594 639.757812 689.058594 640.359375 C 688.839844 640.761719 688.714844 641.199219 688.714844 641.691406 C 688.714844 642.878906 688.839844 658.445312 692.636719 674.757812 C 688.328125 673.644531 681.160156 671.289062 674.167969 666.820312 Z M 706.503906 704.753906 C 708.382812 706.761719 710.464844 708.515625 712.761719 709.882812 C 726.867188 718.292969 737.652344 718.96875 743.054688 718.566406 C 742.90625 722.65625 743.382812 729.242188 747.195312 733.714844 C 749.859375 736.851562 753.582031 738.4375 758.308594 738.4375 C 775.222656 738.4375 801.9375 718.640625 808.542969 681.488281 C 825 682.546875 848.613281 686.453125 866.003906 699.207031 C 895.527344 720.867188 941.125 787.761719 947.457031 813.417969 C 950.269531 824.804688 948.699219 835.933594 943.042969 844.746094 C 938.902344 851.1875 932.824219 855.859375 927.203125 856.917969 C 926.914062 856.972656 926.65625 857.082031 926.417969 857.210938 L 823.214844 857.210938 C 816.097656 856.554688 808.890625 855.347656 802.394531 854 C 811.1875 840.878906 807.449219 826.828125 805.128906 820.863281 C 806.9375 820.933594 808.871094 820.972656 810.949219 820.972656 C 812.265625 820.972656 813.632812 820.953125 815.058594 820.933594 C 847.753906 820.261719 889.269531 815.1875 889.6875 815.152344 C 891.183594 814.96875 892.261719 813.601562 892.078125 812.101562 C 891.894531 810.605469 890.492188 809.550781 889.03125 809.714844 C 888.902344 809.730469 884.796875 810.222656 878.210938 810.9375 C 866.128906 792.925781 849.925781 771.921875 849.761719 771.722656 C 848.832031 770.519531 847.117188 770.316406 845.929688 771.230469 C 844.726562 772.160156 844.507812 773.875 845.4375 775.0625 C 845.601562 775.261719 860.292969 794.3125 872.042969 811.574219 C 856.96875 813.105469 834.378906 815.058594 814.964844 815.460938 C 788.761719 816.007812 785.058594 811.574219 776.9375 801.867188 C 775.296875 799.894531 773.433594 797.6875 771.207031 795.28125 C 769.347656 793.273438 767.449219 791.175781 765.515625 789.039062 C 753.726562 775.972656 740.371094 761.175781 724.679688 757.472656 C 706.921875 753.292969 696.980469 763.476562 695.648438 764.972656 C 693.292969 766.996094 689.917969 771.960938 692.746094 777.652344 C 694.097656 780.335938 697.089844 781.246094 700.574219 781.246094 C 700.628906 781.246094 700.683594 781.246094 700.738281 781.246094 C 698 784.3125 696.375 787.542969 695.648438 790.40625 L 673.949219 736.886719 C 674.570312 733.75 679.152344 718.277344 706.503906 704.753906 Z M 537.953125 843.597656 L 696.832031 843.597656 C 701.394531 843.597656 705.644531 841.335938 708.183594 837.558594 C 708.199219 837.523438 708.21875 837.484375 708.253906 837.449219 C 708.421875 837.484375 708.566406 837.503906 708.75 837.503906 L 772.742188 837.503906 C 774.128906 837.503906 775.257812 838.453125 775.257812 839.621094 L 775.257812 848.140625 C 775.257812 848.617188 775.1875 849.054688 775.113281 849.511719 C 775.09375 849.546875 775.078125 849.582031 775.058594 849.621094 C 775.003906 849.820312 774.96875 850.003906 774.949219 850.203125 C 773.925781 853.78125 770.332031 856.445312 766.042969 856.445312 L 549.011719 856.445312 C 542.917969 856.445312 537.972656 851.957031 537.972656 846.464844 L 537.972656 843.597656 Z M 711.941406 812.871094 C 714.878906 815.277344 720.023438 815.769531 724.84375 811.410156 C 725.71875 810.625 726.683594 809.914062 727.726562 809.273438 C 725.9375 811.539062 724.605469 814.074219 724.421875 816.664062 C 724.257812 818.765625 724.769531 821.8125 728.128906 824.4375 C 731.539062 827.101562 734.660156 827.195312 736.667969 826.792969 C 738.765625 826.371094 740.535156 825.316406 741.941406 824.109375 C 743.144531 827.25 744.96875 829.929688 746.722656 831.992188 L 710.335938 831.992188 C 710.71875 829.585938 710.464844 827.085938 709.515625 824.75 L 700.371094 802.214844 C 703.21875 803.417969 706.414062 803.328125 709.113281 802.832031 C 708.074219 807.558594 709.714844 811.0625 711.941406 812.871094 Z M 772.742188 832.011719 L 754.476562 832.011719 C 752.90625 830.714844 747.011719 825.425781 746.191406 818.652344 C 746.191406 818.582031 746.210938 818.527344 746.226562 818.453125 C 746.429688 818.324219 748.34375 817.320312 754.894531 820.058594 C 756.300781 820.644531 757.886719 819.984375 758.472656 818.582031 C 759.054688 817.195312 758.398438 815.589844 756.992188 815.003906 C 750.699219 812.378906 746.226562 811.992188 743.328125 813.820312 C 741.867188 814.730469 741.101562 816.0625 740.808594 817.175781 C 740.003906 818.433594 737.960938 820.972656 735.589844 821.429688 C 734.277344 821.664062 732.925781 821.261719 731.503906 820.132812 C 729.953125 818.929688 729.824219 817.871094 729.878906 817.085938 C 730.152344 813.398438 735.917969 808.273438 739.988281 806.007812 C 740.296875 805.828125 740.789062 805.554688 741.246094 805.167969 C 745.113281 804.347656 749.839844 803.710938 753.855469 804.292969 C 755.332031 804.53125 756.738281 803.492188 756.957031 801.996094 C 757.175781 800.5 756.15625 799.113281 754.660156 798.890625 C 749.988281 798.199219 744.695312 798.875 740.371094 799.769531 C 736.867188 798.855469 726.574219 802.488281 721.175781 807.378906 C 719.09375 809.257812 716.777344 809.785156 715.425781 808.65625 C 713.984375 807.46875 713.65625 804.421875 716.046875 800.226562 C 717.671875 798.746094 728.382812 789.878906 747.414062 795.0625 C 748.855469 795.460938 750.371094 794.605469 750.773438 793.144531 C 751.171875 791.683594 750.316406 790.1875 748.855469 789.789062 C 727.289062 783.910156 714.804688 793.949219 712.324219 796.210938 C 710.007812 797.175781 704.480469 798.820312 701.539062 796.667969 C 700.757812 796.082031 700.429688 794.621094 700.683594 792.851562 C 701.394531 788 706.011719 781.738281 714.75 778.199219 C 714.972656 778.128906 715.171875 778.035156 715.371094 777.964844 C 719.078125 776.851562 728.65625 775.28125 742.050781 782.597656 C 742.46875 782.816406 742.90625 782.925781 743.363281 782.925781 C 744.332031 782.925781 745.28125 782.414062 745.773438 781.503906 C 746.503906 780.171875 746.007812 778.511719 744.675781 777.796875 C 731.011719 770.335938 720.480469 771.121094 715.136719 772.378906 C 714.84375 772.378906 714.550781 772.414062 714.277344 772.523438 C 713.96875 772.636719 713.65625 772.761719 713.347656 772.871094 C 712.691406 773.074219 712.195312 773.273438 711.832031 773.417969 C 704.753906 775.828125 698.238281 776.519531 697.597656 775.246094 C 695.957031 771.960938 698.914062 769.367188 699.242188 769.09375 C 699.316406 769.023438 699.386719 768.949219 699.460938 768.875 C 699.515625 768.820312 699.570312 768.785156 699.605469 768.730469 C 699.933594 768.347656 708.019531 759.222656 723.382812 762.835938 C 737.414062 766.140625 750.167969 780.261719 761.410156 792.742188 C 763.363281 794.894531 765.261719 797.011719 767.15625 799.039062 C 769.292969 801.335938 771.097656 803.507812 772.703125 805.40625 C 779.875 813.984375 784.695312 818.875 798.960938 820.441406 C 798.980469 820.460938 798.980469 820.480469 798.980469 820.515625 C 799.363281 821.226562 807.957031 838.179688 796.554688 852.738281 C 789.417969 851.078125 783.671875 849.4375 780.699219 848.542969 C 780.699219 848.414062 780.714844 848.269531 780.714844 848.140625 L 780.714844 839.621094 C 780.734375 835.40625 777.15625 832.011719 772.742188 832.011719 Z M 527.570312 832.886719 L 493.320312 745.226562 C 492.316406 742.671875 492.628906 739.898438 494.179688 737.617188 C 495.730469 735.335938 498.175781 734.023438 500.929688 734.023438 L 660.886719 733.128906 C 660.902344 733.128906 660.921875 733.128906 660.941406 733.128906 C 664.296875 733.128906 667.289062 735.136719 668.550781 738.257812 L 704.460938 826.8125 C 705.5 829.382812 705.207031 832.195312 703.65625 834.492188 C 702.105469 836.792969 699.625 838.125 696.832031 838.125 L 535.21875 838.125 C 531.824219 838.125 528.8125 836.0625 527.570312 832.886719 Z M 779.382812 853.871094 C 781.972656 854.65625 786.316406 855.898438 791.753906 857.246094 L 777.046875 857.246094 C 777.996094 856.226562 778.78125 855.09375 779.382812 853.871094 Z M 559.960938 476.28125 C 558.976562 479.75 550.820312 486.792969 543.445312 492.246094 C 543.59375 489.035156 543.554688 485.441406 543.136719 482.03125 C 546.128906 479.164062 553.265625 473.234375 558.683594 472.25 C 559.121094 472.558594 559.503906 472.925781 559.777344 473.363281 C 560.253906 474.128906 560.308594 475.078125 559.960938 476.28125 Z M 551.238281 469.273438 C 547.515625 471.226562 544.121094 473.871094 541.785156 475.898438 C 541.496094 475.039062 541.148438 474.257812 540.746094 473.527344 C 543.0625 471.757812 547.316406 469.039062 551.238281 469.273438 Z M 477.171875 507.066406 C 478.503906 502.484375 479.875 497.742188 480.292969 493.070312 C 480.785156 487.449219 479.964844 482.703125 479.324219 478.910156 C 478.925781 476.589844 478.449219 473.761719 478.871094 472.941406 C 480.914062 474.074219 485.257812 481.976562 487.136719 490.367188 C 489.105469 499.21875 489.617188 505.222656 489.617188 505.277344 C 489.746094 506.789062 491.113281 507.902344 492.574219 507.777344 C 494.089844 507.648438 495.199219 506.335938 495.074219 504.820312 C 495.054688 504.691406 494.910156 502.902344 494.472656 499.929688 C 505.984375 496.171875 516.878906 490.859375 526.953125 484.128906 C 526.785156 487.082031 526.476562 490.1875 525.4375 492.851562 C 523.558594 497.667969 519.617188 498.890625 511.585938 500.988281 C 508.136719 501.882812 504.25 502.902344 500.019531 504.527344 C 485.257812 510.203125 484.542969 526.660156 484.507812 527.355469 C 484.453125 528.871094 485.640625 530.128906 487.136719 530.183594 C 488.667969 530.164062 489.910156 529.050781 489.964844 527.554688 C 489.980469 527.007812 490.621094 514 501.953125 509.636719 C 505.894531 508.121094 509.632812 507.136719 512.9375 506.28125 C 520.765625 504.234375 527.535156 502.464844 530.507812 494.839844 C 532.132812 490.660156 532.316406 486.152344 532.480469 482.175781 C 532.699219 476.976562 532.992188 474.785156 534.269531 474.695312 C 534.503906 474.675781 534.816406 474.695312 535.253906 475.167969 C 537.789062 477.886719 538.8125 488.140625 537.460938 497.558594 C 536.113281 507.027344 534.503906 508.945312 520.363281 518.050781 C 505.511719 527.609375 499.671875 540.875 503.359375 556.53125 C 490.148438 562.355469 478.230469 553.25 477.703125 552.828125 C 478.394531 540.875 477.519531 533.707031 475.039062 526.589844 C 473.121094 521.023438 475.09375 514.234375 477.171875 507.066406 Z M 396.8125 447.378906 C 391.265625 451.191406 384.96875 451.867188 377.578125 449.476562 C 376.867188 449.238281 376.082031 449.3125 375.40625 449.675781 C 374.734375 450.042969 374.257812 450.664062 374.074219 451.390625 C 373.417969 453.984375 367.835938 476.882812 375.0625 486.316406 C 379.257812 491.808594 389.769531 492.484375 401.921875 493.269531 C 404.785156 493.453125 407.761719 493.652344 410.734375 493.910156 C 410.933594 498.269531 409.839844 520.148438 368.128906 527.101562 C 324.058594 534.453125 298.734375 515.914062 291.691406 509.710938 C 297.601562 508.378906 301.652344 507.902344 301.835938 507.886719 C 322.746094 504.289062 335.5 494.472656 341.960938 476.9375 C 346.429688 464.820312 349.644531 437.234375 340.171875 425.390625 C 336.886719 421.285156 332.398438 418.804688 328.421875 416.613281 C 320.847656 412.433594 316.980469 409.878906 318.332031 401.761719 C 318.75 399.277344 319.554688 397.835938 320.722656 397.433594 C 324.078125 396.320312 331.359375 401.375 335.445312 405.316406 C 336.175781 406.011719 337.214844 406.25 338.164062 405.957031 C 339.113281 405.664062 339.84375 404.863281 340.027344 403.894531 L 342.433594 391.960938 C 347.507812 390.101562 366.121094 383.785156 387.507812 383.148438 C 388.273438 383.128906 389.003906 382.78125 389.496094 382.199219 C 389.859375 381.777344 396.375 374.003906 396.191406 362.785156 C 399 367.125 401.683594 373.332031 401.628906 381.140625 C 401.554688 389.207031 410.496094 389.460938 417.667969 389.679688 C 417.996094 389.699219 418.324219 389.699219 418.652344 389.714844 C 417.941406 398.585938 413.890625 435.664062 396.8125 447.378906 Z M 304.609375 393.074219 C 305.464844 360.792969 314.097656 331.035156 370.1875 331.035156 C 371.15625 331.035156 372.125 331.035156 373.128906 331.050781 C 393.726562 331.417969 409.203125 341.179688 419.09375 360.082031 C 424.183594 369.808594 426.445312 379.609375 427.375 384.972656 C 424.382812 384.371094 421.0625 384.277344 417.832031 384.1875 C 410.261719 383.96875 407.085938 383.496094 407.101562 381.160156 C 407.25 362.054688 393.726562 351.523438 393.144531 351.085938 C 392.160156 350.339844 390.808594 350.339844 389.824219 351.085938 C 388.839844 351.835938 388.472656 353.132812 388.949219 354.28125 C 393.492188 365.667969 388.070312 374.863281 386.027344 377.710938 C 360.609375 378.75 339.898438 387.035156 339.023438 387.398438 C 338.164062 387.746094 337.546875 388.492188 337.363281 389.386719 L 335.574219 398.203125 C 331.304688 394.808594 324.390625 390.464844 318.96875 392.253906 C 316.726562 393 313.859375 395.097656 312.894531 400.867188 C 310.847656 413.183594 318.75 417.5625 325.738281 421.410156 C 329.441406 423.457031 333.257812 425.574219 335.867188 428.820312 C 343.257812 438.054688 341.320312 462.761719 336.796875 475.039062 C 333.203125 484.804688 325.574219 498.25 301.050781 502.464844 C 300.410156 502.539062 288.824219 503.816406 275.6875 508.6875 C 302.472656 473.144531 303.75 425.480469 304.609375 393.074219 Z M 259.464844 681.527344 L 246.472656 603.628906 C 245.617188 598.5 249.082031 593.539062 254.210938 592.570312 L 358.328125 573.082031 C 363.472656 572.117188 368.382812 575.363281 369.515625 580.492188 L 377.015625 614.578125 C 372.105469 615.542969 367.179688 617.1875 363.4375 618.828125 C 361.339844 619.742188 359.460938 620.636719 357.761719 621.476562 C 358.273438 617.367188 358.457031 611.4375 356.121094 607.933594 C 354.167969 605.015625 351.175781 601.21875 347.582031 601.839844 C 345.375 602.222656 343.859375 604.046875 343.039062 607.277344 C 342.800781 608.246094 342.5625 609.304688 342.324219 610.433594 C 341.03125 616.476562 339.40625 623.992188 333.128906 629.886719 C 325.886719 636.675781 324.132812 649.464844 323.730469 654.320312 C 315.722656 657.039062 283.242188 668.550781 259.464844 681.527344 Z M 312.144531 664.300781 C 320.976562 660.980469 327.015625 658.9375 327.199219 658.882812 C 328.277344 658.515625 329.023438 657.511719 329.058594 656.363281 C 329.058594 656.199219 329.625 640.617188 336.851562 633.828125 C 344.371094 626.765625 346.265625 617.972656 347.652344 611.546875 C 347.890625 610.472656 348.09375 609.484375 348.328125 608.574219 C 348.4375 608.097656 348.566406 607.769531 348.65625 607.515625 C 349.1875 607.933594 350.152344 608.867188 351.539062 610.945312 C 353.199219 613.425781 352.597656 620.433594 351.648438 624.613281 C 351.648438 624.648438 351.648438 624.6875 351.632812 624.722656 C 348.382812 626.601562 346.6875 627.859375 346.558594 627.953125 C 345.355469 628.863281 345.097656 630.578125 346.011719 631.785156 C 346.925781 632.988281 348.640625 633.246094 349.84375 632.332031 C 349.898438 632.296875 355.207031 628.371094 365.589844 623.828125 C 377.289062 618.699219 388.4375 618.207031 390.226562 620.363281 C 390.335938 620.488281 390.335938 620.507812 390.316406 620.617188 C 390.078125 621.894531 387.394531 624.230469 385.042969 625.636719 C 382.671875 626.4375 367.25 631.820312 359.367188 637.242188 C 358.128906 638.097656 357.800781 639.796875 358.65625 641.054688 C 359.1875 641.820312 360.042969 642.238281 360.917969 642.238281 C 361.449219 642.238281 361.996094 642.074219 362.472656 641.765625 C 368.855469 637.367188 381.355469 632.75 385.609375 631.238281 C 386.847656 632.441406 388.894531 634.832031 389.640625 638.226562 C 389.675781 638.351562 389.730469 638.5 389.75 638.644531 C 389.457031 638.644531 389.167969 638.683594 388.894531 638.773438 C 388.617188 638.863281 382.121094 641.054688 375.152344 644.082031 C 373.765625 644.683594 373.128906 646.289062 373.730469 647.675781 C 374.183594 648.71875 375.1875 649.320312 376.246094 649.320312 C 376.613281 649.320312 376.976562 649.246094 377.34375 649.101562 C 384.09375 646.164062 390.589844 643.972656 390.644531 643.957031 C 390.917969 643.863281 391.171875 643.71875 391.394531 643.554688 C 393.398438 649.15625 395.078125 655.414062 387.160156 662.019531 C 375.425781 671.800781 336.722656 686.542969 336.339844 686.691406 C 336.011719 686.816406 335.703125 687.019531 335.429688 687.257812 C 335.300781 687.367188 332.710938 689.8125 328.421875 693.660156 C 308.238281 685.90625 312 666.546875 312.179688 665.707031 C 312.308594 665.195312 312.273438 664.738281 312.144531 664.300781 Z M 338.839844 691.582031 C 343.292969 689.867188 372.980469 678.332031 387.105469 668.863281 L 399.585938 731.945312 C 400.242188 735.210938 399.566406 738.550781 397.6875 741.304688 C 395.808594 744.058594 392.980469 745.921875 389.695312 746.542969 L 285.414062 765.902344 C 282.128906 766.503906 278.789062 765.792969 276.050781 763.875 C 273.316406 761.960938 271.488281 759.09375 270.925781 755.792969 L 269.429688 746.996094 C 269.390625 746.742188 269.300781 746.488281 269.171875 746.265625 C 299.574219 728.058594 334.371094 695.777344 338.839844 691.582031 Z M 267.859375 762.910156 C 269.136719 765.027344 270.832031 766.886719 272.929688 768.347656 C 275.960938 770.464844 279.5 771.578125 283.113281 771.578125 C 284.207031 771.578125 285.320312 771.46875 286.417969 771.265625 L 390.699219 751.90625 C 395.425781 751.03125 399.53125 748.347656 402.230469 744.371094 C 404.933594 740.390625 405.898438 735.59375 404.96875 730.867188 L 391.941406 665.085938 C 401.757812 655.925781 398.308594 646.382812 396.171875 640.578125 C 395.699219 639.265625 395.242188 638.007812 395.023438 637.039062 C 394.183594 633.261719 392.25 630.378906 390.589844 628.5 C 392.726562 626.859375 395.222656 624.394531 395.71875 621.601562 C 396.027344 619.886719 395.589844 618.246094 394.441406 616.875 C 392.140625 614.121094 387.578125 613.410156 382.414062 613.8125 L 374.84375 579.34375 C 373.089844 571.332031 365.371094 566.222656 357.308594 567.738281 L 253.1875 587.226562 C 245.160156 588.722656 239.722656 596.496094 241.070312 604.558594 L 254.355469 684.261719 C 254.375 684.316406 254.390625 684.371094 254.410156 684.425781 C 249.941406 687.054688 245.925781 689.71875 242.605469 692.382812 C 241.417969 693.332031 241.234375 695.046875 242.183594 696.234375 C 242.734375 696.910156 243.515625 697.253906 244.320312 697.253906 C 244.921875 697.253906 245.523438 697.054688 246.035156 696.652344 C 259.832031 685.613281 287.421875 673.863281 306.578125 666.453125 C 305.996094 672.128906 305.867188 689.28125 323.914062 697.695312 C 304.589844 714.71875 265.503906 747.125 242.347656 752.433594 C 234.210938 754.296875 227.84375 753.128906 223.464844 748.96875 C 214.15625 740.117188 214.085938 718.511719 217.132812 701.25 C 218.246094 694.992188 220.050781 683.148438 222.367188 668.167969 C 228.535156 628.136719 237.84375 567.609375 244.246094 543.980469 C 246.929688 534.070312 254.15625 525.769531 265.722656 519.289062 C 272.292969 515.605469 279.355469 513.066406 285.484375 511.335938 C 285.523438 511.390625 285.539062 511.445312 285.578125 511.480469 C 286.542969 512.558594 306.726562 534.363281 347.871094 534.363281 C 354.386719 534.363281 361.449219 533.816406 369.023438 532.554688 C 412.285156 525.347656 416.042969 501.699219 416.171875 494.546875 C 421.8125 495.277344 427.195312 496.390625 431.589844 498.398438 C 447.449219 505.640625 466.753906 551.148438 470.75 568.648438 C 470.585938 570.035156 470.421875 571.476562 470.238281 572.972656 C 467.171875 598.007812 475.492188 653.351562 475.859375 655.707031 C 476.058594 657.058594 477.226562 658.023438 478.558594 658.023438 C 478.707031 658.023438 478.832031 658.003906 478.980469 657.988281 C 480.476562 657.769531 481.496094 656.363281 481.277344 654.867188 C 481.1875 654.300781 472.71875 597.917969 475.695312 573.628906 C 476.371094 568.121094 476.878906 563.339844 477.265625 559.070312 C 480.695312 561.113281 486.863281 563.996094 494.269531 563.996094 C 497.589844 563.996094 501.167969 563.394531 504.855469 561.878906 C 518.757812 610.035156 526.3125 642.898438 527.28125 659.519531 C 528.867188 686.542969 525.984375 701.324219 505.820312 707.144531 C 496.476562 709.847656 482.246094 703.242188 466.734375 689.042969 C 452.574219 676.089844 440.242188 659.246094 435.296875 646.179688 C 435.113281 645.726562 434.820312 645.34375 434.472656 645.050781 L 439.363281 611.929688 C 443.25 608.648438 457.847656 594.613281 457.375 570.199219 C 457.15625 558.523438 450.914062 547.5 439.347656 538.320312 C 430.789062 531.535156 422.394531 528.140625 422.046875 527.992188 C 420.644531 527.429688 419.054688 528.121094 418.488281 529.507812 C 417.925781 530.894531 418.617188 532.5 420.003906 533.066406 C 420.3125 533.195312 451.425781 545.96875 451.898438 570.292969 C 452.375 594.960938 435.332031 608.152344 435.167969 608.28125 C 434.582031 608.71875 434.199219 609.359375 434.109375 610.070312 L 426.191406 663.808594 C 425.3125 669.757812 426.117188 675.816406 428.542969 681.34375 C 440.277344 708.203125 478.707031 799.257812 487.207031 857.265625 L 242.511719 857.265625 C 242.859375 817.066406 260.832031 777.03125 267.859375 762.910156 Z M 267.859375 762.910156 " fill-opacity="1" fill-rule="nonzero"/></g><path fill="#000000" d="M 374.113281 402.746094 C 373.636719 405.683594 374.878906 408.328125 376.867188 408.640625 C 378.855469 408.949219 380.847656 406.832031 381.320312 403.875 C 381.792969 400.921875 380.554688 398.292969 378.566406 397.984375 C 376.574219 397.671875 374.585938 399.789062 374.113281 402.746094 Z M 374.113281 402.746094 " fill-opacity="1" fill-rule="nonzero"/><path fill="#000000" d="M 403.582031 401.996094 C 401.59375 401.6875 399.605469 403.804688 399.128906 406.757812 C 398.65625 409.699219 399.894531 412.34375 401.886719 412.652344 C 403.875 412.964844 405.863281 410.847656 406.335938 407.890625 C 406.8125 404.953125 405.589844 402.324219 403.582031 401.996094 Z M 403.582031 401.996094 " fill-opacity="1" fill-rule="nonzero"/><path fill="#000000" d="M 385.390625 415.480469 C 384.84375 415.28125 384.203125 415.390625 383.746094 415.828125 C 383.144531 416.429688 383.125 417.414062 383.730469 418.019531 C 384.402344 418.710938 385.171875 419.351562 386.046875 419.859375 C 386.957031 420.371094 387.945312 420.828125 389.128906 420.972656 C 390.28125 421.136719 391.613281 421.027344 392.761719 420.425781 C 393.910156 419.804688 394.714844 418.929688 395.152344 417.617188 C 395.242188 417.34375 395.242188 417.050781 395.132812 416.757812 C 394.894531 416.082031 394.148438 415.738281 393.453125 415.972656 L 392.667969 416.25 C 392.175781 416.429688 391.574219 416.722656 391.136719 416.8125 C 390.664062 416.921875 390.1875 417.015625 389.621094 416.941406 C 389.058594 416.90625 388.398438 416.6875 387.707031 416.484375 C 387.359375 416.339844 387.03125 416.195312 386.667969 416.046875 C 386.300781 415.882812 385.953125 415.699219 385.570312 415.554688 Z M 385.390625 415.480469 " fill-opacity="1" fill-rule="nonzero"/><path fill="#000000" d="M 393.875 430.425781 L 393.691406 430.515625 C 392.25 431.191406 390.480469 431.792969 388.855469 432.125 C 387.175781 432.46875 385.5 432.542969 383.839844 432.34375 C 382.195312 432.125 380.554688 431.703125 379.003906 430.917969 C 377.433594 430.207031 375.992188 429.148438 374.496094 428.074219 L 374.367188 427.980469 C 373.875 427.617188 373.164062 427.632812 372.6875 428.074219 C 372.125 428.566406 372.070312 429.421875 372.5625 429.988281 C 373.238281 430.753906 373.929688 431.519531 374.679688 432.25 C 375.5 432.890625 376.265625 433.621094 377.214844 434.128906 C 378.984375 435.335938 381.121094 436.011719 383.273438 436.375 C 385.445312 436.722656 387.671875 436.558594 389.730469 435.972656 C 391.832031 435.390625 393.691406 434.496094 395.460938 433.070312 C 396.007812 432.632812 396.210938 431.847656 395.898438 431.191406 C 395.570312 430.390625 394.640625 430.042969 393.875 430.425781 Z M 393.875 430.425781 " fill-opacity="1" fill-rule="nonzero"/><path fill="#000000" d="M 408.324219 392.945312 C 407.085938 392.199219 405.625 391.707031 404.128906 391.578125 C 402.613281 391.433594 401.046875 391.632812 399.675781 392.234375 C 398.289062 392.78125 397.121094 393.695312 396.210938 394.769531 C 395.9375 395.097656 395.828125 395.539062 395.953125 395.976562 C 396.15625 396.6875 396.886719 397.089844 397.578125 396.90625 L 397.742188 396.871094 C 398.910156 396.542969 399.914062 396.121094 400.917969 395.9375 C 401.902344 395.664062 402.886719 395.59375 403.875 395.59375 C 404.859375 395.609375 405.882812 395.773438 406.9375 396.066406 C 407.960938 396.359375 409.074219 396.816406 410.097656 397.269531 L 410.261719 397.34375 C 410.550781 397.472656 410.898438 397.453125 411.171875 397.269531 C 411.628906 396.980469 411.757812 396.375 411.464844 395.921875 C 410.625 394.625 409.585938 393.710938 408.324219 392.945312 Z M 408.324219 392.945312 " fill-opacity="1" fill-rule="nonzero"/><path fill="#000000" d="M 372.453125 394.242188 C 373.621094 393.914062 374.625 393.492188 375.628906 393.3125 C 376.613281 393.039062 377.597656 392.964844 378.582031 392.964844 C 379.570312 392.984375 380.589844 393.148438 381.648438 393.4375 C 382.671875 393.730469 383.785156 394.1875 384.804688 394.644531 L 384.96875 394.714844 C 385.261719 394.84375 385.609375 394.824219 385.882812 394.644531 C 386.339844 394.351562 386.464844 393.75 386.175781 393.292969 C 385.351562 392.035156 384.3125 391.121094 383.070312 390.355469 C 381.832031 389.605469 380.371094 389.113281 378.875 388.988281 C 377.359375 388.839844 375.792969 389.042969 374.421875 389.644531 C 373.035156 390.191406 371.867188 391.101562 370.957031 392.179688 C 370.683594 392.507812 370.574219 392.945312 370.699219 393.382812 C 370.902344 394.097656 371.632812 394.496094 372.324219 394.316406 Z M 372.453125 394.242188 " fill-opacity="1" fill-rule="nonzero"/><path fill="#000000" d="M 742.6875 675.816406 C 744.585938 675.449219 745.679688 672.894531 745.152344 670.085938 C 744.621094 667.273438 742.652344 665.304688 740.753906 665.667969 C 738.855469 666.035156 737.761719 668.589844 738.289062 671.398438 C 738.820312 674.210938 740.789062 676.179688 742.6875 675.816406 Z M 742.6875 675.816406 " fill-opacity="1" fill-rule="nonzero"/><path fill="#000000" d="M 715.207031 670.324219 C 713.308594 670.6875 712.214844 673.242188 712.746094 676.050781 C 713.273438 678.863281 715.246094 680.832031 717.140625 680.46875 C 719.039062 680.101562 720.132812 677.546875 719.605469 674.738281 C 719.078125 671.929688 717.105469 669.957031 715.207031 670.324219 Z M 715.207031 670.324219 " fill-opacity="1" fill-rule="nonzero"/><path fill="#000000" d="M 726.121094 687.640625 C 727.234375 688.1875 728.511719 688.242188 729.605469 688.058594 C 730.738281 687.875 731.667969 687.421875 732.523438 686.890625 C 733.363281 686.363281 734.058594 685.742188 734.695312 685.046875 C 735.097656 684.609375 735.207031 683.953125 734.953125 683.386719 C 734.605469 682.640625 733.710938 682.328125 732.960938 682.695312 L 732.851562 682.75 C 732.140625 683.09375 731.464844 683.425781 730.828125 683.714844 C 730.171875 683.933594 729.550781 684.171875 729.003906 684.207031 C 728.457031 684.300781 728 684.246094 727.542969 684.136719 C 727.105469 684.0625 726.539062 683.789062 726.046875 683.644531 L 725.296875 683.40625 C 725.042969 683.316406 724.75 683.316406 724.476562 683.425781 C 723.820312 683.660156 723.492188 684.390625 723.730469 685.03125 C 724.203125 686.253906 725.007812 687.074219 726.121094 687.640625 Z M 726.121094 687.640625 " fill-opacity="1" fill-rule="nonzero"/><path fill="#000000" d="M 743.949219 694.300781 L 743.835938 694.390625 C 742.449219 695.46875 741.101562 696.527344 739.621094 697.253906 C 738.164062 698.058594 736.613281 698.496094 735.042969 698.769531 C 733.472656 699.027344 731.847656 698.988281 730.242188 698.714844 C 728.65625 698.441406 726.960938 697.929688 725.554688 697.308594 L 725.371094 697.238281 C 724.75 696.964844 724.003906 697.144531 723.582031 697.710938 C 723.089844 698.367188 723.238281 699.300781 723.894531 699.792969 C 725.644531 701.085938 727.433594 701.910156 729.476562 702.402344 C 731.484375 702.894531 733.621094 702.96875 735.679688 702.582031 C 737.726562 702.183594 739.75 701.46875 741.410156 700.265625 C 742.304688 699.753906 743.015625 699.027344 743.78125 698.386719 C 744.496094 697.675781 745.113281 696.925781 745.753906 696.160156 C 746.136719 695.703125 746.15625 695.03125 745.789062 694.535156 C 745.335938 693.972656 744.511719 693.863281 743.949219 694.300781 Z M 743.949219 694.300781 " fill-opacity="1" fill-rule="nonzero"/><path fill="#000000" d="M 718.675781 660.851562 C 717.34375 660.324219 715.828125 660.175781 714.386719 660.359375 C 712.945312 660.542969 711.558594 661.035156 710.410156 661.800781 C 709.242188 662.566406 708.273438 663.480469 707.527344 664.703125 C 707.378906 664.957031 707.34375 665.285156 707.488281 665.578125 C 707.707031 666.035156 708.273438 666.234375 708.730469 666.015625 L 708.875 665.941406 C 709.84375 665.488281 710.882812 665.011719 711.851562 664.703125 C 712.835938 664.390625 713.804688 664.191406 714.769531 664.15625 C 715.71875 664.136719 716.648438 664.15625 717.617188 664.390625 C 718.601562 664.539062 719.550781 664.921875 720.683594 665.195312 L 720.847656 665.230469 C 721.230469 665.324219 721.667969 665.230469 721.996094 664.941406 C 722.523438 664.464844 722.5625 663.664062 722.085938 663.152344 C 721.15625 662.167969 720.023438 661.328125 718.675781 660.851562 Z M 718.675781 660.851562 " fill-opacity="1" fill-rule="nonzero"/></svg>