<svg xmlns="http://www.w3.org/2000/svg" xmlns:xlink="http://www.w3.org/1999/xlink" width="800" zoomAndPan="magnify" viewBox="0 0 600 599.999999" height="800" preserveAspectRatio="xMidYMid meet" version="1.0"><defs><clipPath id="10b70590e2"><path d="M 71.984375 86.757812 L 540 86.757812 L 540 513.242188 L 71.984375 513.242188 Z M 71.984375 86.757812 " clip-rule="nonzero"/></clipPath><clipPath id="53ccb7da35"><path d="M 188.785156 168.785156 L 451.285156 168.785156 L 451.285156 431.285156 L 188.785156 431.285156 Z M 188.785156 168.785156 " clip-rule="nonzero"/></clipPath></defs><rect x="-60" width="720" fill="#ffffff" y="-60" height="719.999999" fill-opacity="1"/><rect x="-60" width="720" fill="#000000" y="-60" height="719.999999" fill-opacity="1"/><g clip-path="url(#10b70590e2)"><path fill="#ffffff" d="M 71.984375 86.757812 L 540.117188 86.757812 L 540.117188 513.242188 L 71.984375 513.242188 Z M 71.984375 86.757812 " fill-opacity="1" fill-rule="nonzero"/></g><g clip-path="url(#53ccb7da35)"><path fill="#000000" d="M 451.203125 168.785156 L 451.203125 431.203125 L 188.785156 431.203125 L 188.785156 380.410156 L 364.492188 380.410156 L 189.714844 205.632812 L 225.632812 169.714844 L 400.410156 344.492188 L 400.410156 168.785156 Z M 451.203125 168.785156 " fill-opacity="1" fill-rule="nonzero"/></g></svg>